# xmcd
#
# Track frame offsets: 
#        150
#        11862
#        29632
#        41357
#        56907
#        68645
#        81887
#        94942
#        105255
#        123550
#        137462
#        146077
#
# Disc length: 2065 seconds
#
# Revision: 1
# Processed by: cddbd v1.5.2PL0 Copyright (c) Steve Scherf et al.
# Submitted via: ExactAudioCopyFreeDBPlugin 1.0
#
DISCID=a5080f0c
DTITLE=Μάνος Λοΐζος - Ο σταθμός
DYEAR=1968
DGENRE=Έντεχνη λαϊκή
TTITLE0=Καλατζής Γιάννης - Δελφίνι, δελφινάκι [Μ. Λοΐζου-Λ. Παπαδόπουλ
TTITLE0=ου]
TTITLE1=Καλατζής Γιάννης - Το παλιό ρολόϊ [Μ. Λοΐζου-Λ. Παπαδόπουλου]
TTITLE2=Άνευ ερμηνευτού - Ο σταθμός [ορχηστρικό, Μ. Λοΐζου]
TTITLE3=Διιαμάντη Λίτσα - Όποιος δει το παλληκάρι [Μ. Λοΐζου, στίχοι ι
TTITLE3=δίου]
TTITLE4=Νταλάρας Γιώργος - Ήταν οχτώ, εννιά [Μ. Λοΐζου-Λ. Παπαδόπουλου
TTITLE4=]
TTITLE5=Άνευ ερμηνευτού - Φινάλε πρώτου μέρους [ορχηστρικό, Μ. Λοΐζου]
TTITLE6=Καλατζής Γιάννης - Το μελαχροινάκι [Μ. Λοΐζου-Λ. Παπαδόπουλου]
TTITLE7=Ευσταθίου Δημήτρης - Η δουλειά κάνει τους άντρες [Μ. Λοΐζου-Λ.
TTITLE7=Παπαδόπουλου]
TTITLE8=Άνευ ερμηνευτού - Σ' αποθύμησα  [Μ. Λοΐζου]
TTITLE9=Καλατζής Γιάννης - Πίσω απ' την πόρτα [Μ. Λοΐζου-Λ. Παπαδόπουλ
TTITLE9=ου]
TTITLE10=Άνευ ερμηνευτού - Επιστροφή [Μ. Λοΐζου]
TTITLE11=Άνευ ερμηνευτού - Φινάλε δευτέρου μέρους [ορχηστρικό, Μ. Λοΐζ
TTITLE11=ου]
EXTD=
EXTT0=
EXTT1=
EXTT2=
EXTT3=
EXTT4=
EXTT5=
EXTT6=
EXTT7=
EXTT8=
EXTT9=
EXTT10=
EXTT11=
PLAYORDER=
